<?xml version="1.0" standalone="no"?>
<!DOCTYPE svg PUBLIC "-//W3C//DTD SVG 20010904//EN"
 "http://www.w3.org/TR/2001/REC-SVG-20010904/DTD/svg10.dtd">
<svg version="1.0" xmlns="http://www.w3.org/2000/svg"
 width="250.000000pt" height="250.000000pt" viewBox="0 0 250.000000 250.000000"
 preserveAspectRatio="xMidYMid meet">
<metadata>
Created by potrace 1.14, written by Peter Selinger 2001-2017
</metadata>
<g transform="translate(0.000000,250.000000) scale(0.100000,-0.100000)"
fill="#000000" stroke="none">
<path d="M84 2054 c-67 -33 -64 7 -64 -804 0 -789 -1 -767 52 -804 20 -14 146
-16 1170 -16 l1148 0 32 29 33 29 3 751 c3 832 6 782 -63 815 -30 14 -151 16
-1157 16 -980 0 -1127 -2 -1154 -16z m2301 -54 l25 -26 0 -729 0 -729 -23 -23
-23 -23 -1124 0 -1124 0 -23 22 -22 23 -1 630 c-2 887 -3 819 19 846 16 20 32
25 88 30 37 3 544 6 1125 5 l1058 -1 25 -25z"/>
<path d="M1090 1793 c-220 -380 -240 -417 -240 -455 0 -20 4 -48 10 -62 l9
-26 197 -2 197 -3 -1 -120 c-1 -66 2 -126 7 -133 5 -9 25 -12 62 -10 l54 3 0
260 0 260 -60 0 -60 0 -3 -57 c-3 -52 -5 -58 -28 -64 -35 -9 -193 1 -205 13
-7 7 0 27 19 59 15 27 50 90 77 139 26 50 77 141 112 203 34 63 63 115 63 118
0 2 -31 4 -68 4 l-68 0 -74 -127z"/>
<path d="M1455 1911 c-7 -12 -10 -119 -4 -126 3 -2 87 -5 186 -5 141 -1 184
-5 193 -15 9 -11 -19 -99 -125 -389 -76 -207 -135 -382 -131 -391 5 -13 19
-15 73 -13 l67 3 143 395 c140 388 143 396 140 470 l-2 75 -267 3 c-164 1
-269 -1 -273 -7z"/>
<path d="M1247 884 c-28 -15 -47 -49 -47 -84 0 -32 34 -60 100 -83 58 -20 65
-25 68 -52 3 -19 -2 -33 -14 -42 -26 -19 -84 -16 -121 7 l-33 20 0 -29 c0 -26
5 -30 44 -40 59 -15 81 -14 116 4 35 18 53 49 52 88 -1 37 -25 63 -71 77 -82
26 -91 31 -91 59 0 15 5 32 12 39 17 17 89 15 116 -4 21 -14 22 -14 22 11 0
18 -7 28 -26 35 -37 14 -95 12 -127 -6z"/>
<path d="M650 735 l0 -155 25 0 c24 0 25 3 25 60 0 56 1 60 24 60 16 0 36 -17
70 -60 36 -45 54 -60 73 -60 29 0 31 -5 -40 83 l-39 48 25 23 c33 31 43 68 27
105 -15 38 -48 51 -125 51 l-65 0 0 -155z m124 115 c21 -8 26 -16 26 -44 0
-44 -22 -66 -66 -66 l-34 0 0 60 c0 57 1 60 24 60 14 0 36 -4 50 -10z"/>
<path d="M920 773 c0 -100 3 -123 20 -151 38 -63 132 -69 183 -12 26 30 27 33
27 155 0 118 -1 125 -20 125 -19 0 -20 -7 -20 -111 0 -140 -13 -169 -76 -169
-54 0 -63 21 -66 155 -3 116 -4 120 -25 123 -23 3 -23 2 -23 -115z"/>
<path d="M1530 683 l0 -123 308 0 307 0 -3 117 c-2 65 -5 119 -6 120 -1 1
-138 3 -304 5 l-302 3 0 -122z"/>
</g>
</svg>
